<svg xmlns="http://www.w3.org/2000/svg" version="1.1" xmlns:xlink="http://www.w3.org/1999/xlink" xmlns:svgjs="http://svgjs.dev/svgjs" width="1920" height="1080" preserveAspectRatio="none" viewBox="0 0 1920 1080">
    <g mask="url(&quot;#SvgjsMask1008&quot;)" fill="none">
        <rect width="1920" height="1080" x="0" y="0" fill="#1e3266"></rect>
        <path d="M1984 1080L0 1080 L0 610.57Q89.36 603.93, 96 693.3Q158.04 659.34, 192 721.38Q195.05 628.43, 288 631.49Q311.3 558.79, 384 582.09Q446.41 484.5, 544 546.91Q620.14 527.05, 640 603.19Q725.27 528.47, 800 613.74Q936.11 589.85, 960 725.96Q998.85 668.81, 1056 707.66Q1100.8 592.45, 1216 637.25Q1302.13 563.38, 1376 649.52Q1379.98 557.5, 1472 561.47Q1558.27 487.75, 1632 574.02Q1721.27 567.29, 1728 656.56Q1742.37 574.92, 1824 589.29Q1883.59 488.88, 1984 548.47z" fill="#182f5d"></path>
        <path d="M2048 1080L0 1080 L0 722.97Q103.48 666.45, 160 769.93Q167.7 681.63, 256 689.32Q342.28 615.61, 416 701.89Q517.37 707.25, 512 808.62Q581.24 781.86, 608 851.09Q609.35 756.44, 704 757.79Q746.06 639.85, 864 681.91Q932.8 654.71, 960 723.51Q1032.51 636.01, 1120 708.52Q1160.24 652.76, 1216 693Q1287.87 668.87, 1312 740.73Q1382.36 715.09, 1408 785.44Q1434.77 652.21, 1568 678.97Q1661.16 612.13, 1728 705.29Q1834.9 652.19, 1888 759.09Q1987.68 698.77, 2048 798.45z" fill="#25467d"></path>
        <path d="M1952 1080L0 1080 L0 967.27Q38.64 909.91, 96 948.55Q95.2 851.75, 192 850.95Q221.47 784.42, 288 813.89Q398.83 764.72, 448 875.56Q557.66 889.22, 544 998.89Q530.52 825.41, 704 811.93Q791.29 739.22, 864 826.52Q1007.68 810.2, 1024 953.88Q1082.26 916.14, 1120 974.4Q1123.86 882.25, 1216 886.11Q1281.56 791.67, 1376 857.23Q1507.53 828.76, 1536 960.3Q1546.39 810.69, 1696 821.08Q1738.61 767.68, 1792 810.29Q1920.82 779.11, 1952 907.92z" fill="#356cb1"></path>
        <path d="M1984 1080L0 1080 L0 1117.66Q87.18 1044.84, 160 1132.02Q160.92 1036.94, 256 1037.86Q324.46 946.32, 416 1014.78Q503.44 1006.22, 512 1093.66Q566.05 987.71, 672 1041.76Q682.6 956.36, 768 966.95Q806.19 909.14, 864 947.33Q941.35 928.68, 960 1006.03Q1093.44 979.47, 1120 1112.92Q1120.61 953.53, 1280 954.14Q1413.82 991.95, 1376 1125.77Q1380.18 969.95, 1536 974.13Q1577.77 919.9, 1632 961.67Q1718.14 951.81, 1728 1037.95Q1834.98 984.93, 1888 1091.91Q1949.43 1057.34, 1984 1118.77z" fill="white"></path>
    </g>
    <defs>
        <mask id="SvgjsMask1008">
            <rect width="1920" height="1080" fill="#ffffff"></rect>
        </mask>
    </defs>
</svg>