<svg xmlns="http://www.w3.org/2000/svg" version="1.1" xmlns:xlink="http://www.w3.org/1999/xlink" xmlns:svgjs="http://svgjs.dev/svgjs" width="1920" height="1080" preserveAspectRatio="none" viewBox="0 0 1920 1080">
    <g mask="url(&quot;#SvgjsMask1025&quot;)" fill="none">
        <rect width="1920" height="1080" x="0" y="0" fill="rgba(17, 15, 43, 1)"></rect>
        <path d="M439.98 1211.71C716.24 1159.36 852.29 461.3 1276.82 460.26 1701.34 459.22 1874.87 909.44 2113.65 924.66" stroke="rgba(51,121,194,0.58)" stroke-width="2"></path>
        <path d="M997.19 1195.05C1098.02 1184.91 1026.87 1003.8 1333.81 969.23 1640.74 934.66 1800.91 507.73 2007.04 483.23" stroke="rgba(51,121,194,0.58)" stroke-width="2"></path>
        <path d="M893.71 1273.56C1071.34 1114.62 938.86 417.74 1257.19 392.15 1575.53 366.56 1794.58 605.88 1984.16 608.15" stroke="rgba(51,121,194,0.58)" stroke-width="2"></path>
        <path d="M741.45 1179.15C907.83 1148.8 798.61 772.6 1248.96 731.85 1699.31 691.1 1978.22 218.22 2263.97 202.65" stroke="rgba(51,121,194,0.58)" stroke-width="2"></path>
        <path d="M550.53 1245.79C738.23 1185.89 665.56 646.46 1058.8 643.47 1452.04 640.48 1815.53 858.28 2075.34 859.47" stroke="rgba(51,121,194,0.58)" stroke-width="2"></path>
    </g>
    <defs>
        <mask id="SvgjsMask1025">
            <rect width="1920" height="1080" fill="#ffffff"></rect>
        </mask>
    </defs>
</svg>