<svg xmlns="http://www.w3.org/2000/svg" version="1.1" xmlns:xlink="http://www.w3.org/1999/xlink" xmlns:svgjs="http://svgjs.dev/svgjs" width="1920" height="1080" preserveAspectRatio="none" viewBox="0 0 1920 1080"><g mask="url(&quot;#SvgjsMask1413&quot;)" fill="none"><rect width="1920" height="1080" x="0" y="0" fill="#0e2a47"></rect><g transform="translate(0, 0)" stroke-linecap="round" stroke="url(&quot;#SvgjsLinearGradient1414&quot;)"><path d="M393 401.23 L393 678.77" stroke-width="10.5"></path><path d="M407 349.54 L407 730.46" stroke-width="10.5"></path><path d="M421 234.06 L421 845.94" stroke-width="10.5"></path><path d="M435 299.27 L435 780.73" stroke-width="10.5"></path><path d="M449 388 L449 692" stroke-width="10.5"></path><path d="M463 308.31 L463 771.69" stroke-width="10.5"></path><path d="M477 357.47 L477 722.53" stroke-width="10.5"></path><path d="M491 323.72 L491 756.28" stroke-width="10.5"></path><path d="M505 247.79 L505 832.21" stroke-width="10.5"></path><path d="M519 423.04 L519 656.96" stroke-width="10.5"></path><path d="M533 329.57 L533 750.42" stroke-width="10.5"></path><path d="M547 268.64 L547 811.36" stroke-width="10.5"></path><path d="M561 500.77 L561 579.23" stroke-width="10.5"></path><path d="M575 283.75 L575 796.25" stroke-width="10.5"></path><path d="M589 331.56 L589 748.44" stroke-width="10.5"></path><path d="M603 338.65 L603 741.35" stroke-width="10.5"></path><path d="M617 241.64 L617 838.36" stroke-width="10.5"></path><path d="M631 483 L631 597" stroke-width="10.5"></path><path d="M645 481.88 L645 598.12" stroke-width="10.5"></path><path d="M659 353.11 L659 726.89" stroke-width="10.5"></path><path d="M673 393.65 L673 686.35" stroke-width="10.5"></path><path d="M687 501.63 L687 578.38" stroke-width="10.5"></path><path d="M701 306.27 L701 773.73" stroke-width="10.5"></path><path d="M715 447.58 L715 632.41" stroke-width="10.5"></path><path d="M729 414.6 L729 665.4" stroke-width="10.5"></path><path d="M743 447.92 L743 632.09" stroke-width="10.5"></path><path d="M757 481.61 L757 598.39" stroke-width="10.5"></path><path d="M771 300.55 L771 779.45" stroke-width="10.5"></path><path d="M785 423.41 L785 656.59" stroke-width="10.5"></path><path d="M799 338.6 L799 741.4" stroke-width="10.5"></path><path d="M813 259.75 L813 820.25" stroke-width="10.5"></path><path d="M827 261.46 L827 818.54" stroke-width="10.5"></path><path d="M841 225.04 L841 854.96" stroke-width="10.5"></path><path d="M855 303.06 L855 776.94" stroke-width="10.5"></path><path d="M869 380.23 L869 699.77" stroke-width="10.5"></path><path d="M883 308.65 L883 771.35" stroke-width="10.5"></path><path d="M897 400 L897 680" stroke-width="10.5"></path><path d="M911 341.86 L911 738.14" stroke-width="10.5"></path><path d="M925 387.5 L925 692.5" stroke-width="10.5"></path><path d="M939 367.06 L939 712.93" stroke-width="10.5"></path><path d="M953 399.24 L953 680.76" stroke-width="10.5"></path><path d="M967 482.13 L967 597.87" stroke-width="10.5"></path><path d="M981 286.31 L981 793.69" stroke-width="10.5"></path><path d="M995 322.74 L995 757.26" stroke-width="10.5"></path><path d="M1009 437.73 L1009 642.27" stroke-width="10.5"></path><path d="M1023 243.94 L1023 836.06" stroke-width="10.5"></path><path d="M1037 278.1 L1037 801.9" stroke-width="10.5"></path><path d="M1051 281.55 L1051 798.45" stroke-width="10.5"></path><path d="M1065 423.6 L1065 656.4" stroke-width="10.5"></path><path d="M1079 395.74 L1079 684.26" stroke-width="10.5"></path><path d="M1093 324.32 L1093 755.68" stroke-width="10.5"></path><path d="M1107 453.12 L1107 626.88" stroke-width="10.5"></path><path d="M1121 393.49 L1121 686.51" stroke-width="10.5"></path><path d="M1135 466.13 L1135 613.87" stroke-width="10.5"></path><path d="M1149 238.27 L1149 841.73" stroke-width="10.5"></path><path d="M1163 452.69 L1163 627.31" stroke-width="10.5"></path><path d="M1177 249.64 L1177 830.36" stroke-width="10.5"></path><path d="M1191 318.51 L1191 761.49" stroke-width="10.5"></path><path d="M1205 312.2 L1205 767.8" stroke-width="10.5"></path><path d="M1219 257.95 L1219 822.05" stroke-width="10.5"></path><path d="M1233 395.36 L1233 684.64" stroke-width="10.5"></path><path d="M1247 273.35 L1247 806.65" stroke-width="10.5"></path><path d="M1261 307.39 L1261 772.61" stroke-width="10.5"></path><path d="M1275 407.59 L1275 672.41" stroke-width="10.5"></path><path d="M1289 494.36 L1289 585.64" stroke-width="10.5"></path><path d="M1303 453.2 L1303 626.8" stroke-width="10.5"></path><path d="M1317 250.23 L1317 829.77" stroke-width="10.5"></path><path d="M1331 329.38 L1331 750.63" stroke-width="10.5"></path><path d="M1345 282.23 L1345 797.77" stroke-width="10.5"></path><path d="M1359 413.2 L1359 666.8" stroke-width="10.5"></path><path d="M1373 502.57 L1373 577.42" stroke-width="10.5"></path><path d="M1387 491.57 L1387 588.43" stroke-width="10.5"></path><path d="M1401 299.13 L1401 780.87" stroke-width="10.5"></path><path d="M1415 277.24 L1415 802.76" stroke-width="10.5"></path><path d="M1429 326.94 L1429 753.06" stroke-width="10.5"></path><path d="M1443 437.75 L1443 642.25" stroke-width="10.5"></path><path d="M1457 381.5 L1457 698.5" stroke-width="10.5"></path><path d="M1471 310.92 L1471 769.08" stroke-width="10.5"></path><path d="M1485 445.26 L1485 634.74" stroke-width="10.5"></path><path d="M1499 312.04 L1499 767.96" stroke-width="10.5"></path><path d="M1513 453.47 L1513 626.53" stroke-width="10.5"></path><path d="M1527 336.45 L1527 743.55" stroke-width="10.5"></path></g></g><defs><mask id="SvgjsMask1413"><rect width="1920" height="1080" fill="#ffffff"></rect></mask><linearGradient x1="384" y1="540" x2="1536" y2="540" gradientUnits="userSpaceOnUse" id="SvgjsLinearGradient1414"><stop stop-color="#3a7cc3" offset="0"></stop><stop stop-color="rgba(221, 17, 205, 1)" offset="1"></stop></linearGradient></defs></svg>