<svg xmlns="http://www.w3.org/2000/svg" version="1.1" xmlns:xlink="http://www.w3.org/1999/xlink" xmlns:svgjs="http://svgjs.dev/svgjs" width="1920" height="1080" preserveAspectRatio="none" viewBox="0 0 1920 1080"><g mask="url(&quot;#SvgjsMask1136&quot;)" fill="none"><rect width="1920" height="1080" x="0" y="0" fill="#0e2a47"></rect><path d="M257 180L256 920" stroke-width="10" stroke="url(&quot;#SvgjsLinearGradient1137&quot;)" stroke-linecap="round" class="Up"></path><path d="M513 562L512 27" stroke-width="6" stroke="url(&quot;#SvgjsLinearGradient1138&quot;)" stroke-linecap="round" class="Up"></path><path d="M1681 957L1680 161" stroke-width="6" stroke="url(&quot;#SvgjsLinearGradient1139&quot;)" stroke-linecap="round" class="Down"></path><path d="M1 68L0 499" stroke-width="6" stroke="url(&quot;#SvgjsLinearGradient1140&quot;)" stroke-linecap="round" class="Up"></path><path d="M841 210L840 660" stroke-width="10" stroke="url(&quot;#SvgjsLinearGradient1140&quot;)" stroke-linecap="round" class="Up"></path><path d="M1689 574L1688 948" stroke-width="6" stroke="url(&quot;#SvgjsLinearGradient1141&quot;)" stroke-linecap="round" class="Down"></path><path d="M28 181L27 746" stroke-width="10" stroke="url(&quot;#SvgjsLinearGradient1142&quot;)" stroke-linecap="round" class="Down"></path><path d="M1898 142L1897 500" stroke-width="6" stroke="url(&quot;#SvgjsLinearGradient1139&quot;)" stroke-linecap="round" class="Down"></path><path d="M1768 852L1767 391" stroke-width="6" stroke="url(&quot;#SvgjsLinearGradient1140&quot;)" stroke-linecap="round" class="Up"></path><path d="M1571 35L1570 -668" stroke-width="10" stroke="url(&quot;#SvgjsLinearGradient1142&quot;)" stroke-linecap="round" class="Down"></path><path d="M1827 287L1826 633" stroke-width="8" stroke="url(&quot;#SvgjsLinearGradient1137&quot;)" stroke-linecap="round" class="Up"></path><path d="M154 550L153 -129" stroke-width="8" stroke="url(&quot;#SvgjsLinearGradient1137&quot;)" stroke-linecap="round" class="Up"></path><path d="M922 697L921 -14" stroke-width="10" stroke="url(&quot;#SvgjsLinearGradient1142&quot;)" stroke-linecap="round" class="Down"></path><path d="M1852 535L1851 965" stroke-width="8" stroke="url(&quot;#SvgjsLinearGradient1140&quot;)" stroke-linecap="round" class="Up"></path><path d="M917 561L916 1358" stroke-width="8" stroke="url(&quot;#SvgjsLinearGradient1137&quot;)" stroke-linecap="round" class="Up"></path><path d="M667 961L666 1620" stroke-width="10" stroke="url(&quot;#SvgjsLinearGradient1137&quot;)" stroke-linecap="round" class="Up"></path><path d="M414 856L413 192" stroke-width="6" stroke="url(&quot;#SvgjsLinearGradient1138&quot;)" stroke-linecap="round" class="Up"></path><path d="M1765 317L1764 -448" stroke-width="8" stroke="url(&quot;#SvgjsLinearGradient1139&quot;)" stroke-linecap="round" class="Down"></path><path d="M1438 968L1437 539" stroke-width="8" stroke="url(&quot;#SvgjsLinearGradient1138&quot;)" stroke-linecap="round" class="Up"></path><path d="M597 853L596 1418" stroke-width="6" stroke="url(&quot;#SvgjsLinearGradient1140&quot;)" stroke-linecap="round" class="Up"></path><path d="M1209 116L1208 618" stroke-width="10" stroke="url(&quot;#SvgjsLinearGradient1139&quot;)" stroke-linecap="round" class="Down"></path><path d="M696 368L695 1141" stroke-width="8" stroke="url(&quot;#SvgjsLinearGradient1141&quot;)" stroke-linecap="round" class="Down"></path><path d="M1091 661L1090 1000" stroke-width="10" stroke="url(&quot;#SvgjsLinearGradient1137&quot;)" stroke-linecap="round" class="Up"></path><path d="M1498 1035L1497 1379" stroke-width="6" stroke="url(&quot;#SvgjsLinearGradient1138&quot;)" stroke-linecap="round" class="Up"></path><path d="M1616 781L1615 1470" stroke-width="6" stroke="url(&quot;#SvgjsLinearGradient1137&quot;)" stroke-linecap="round" class="Up"></path><path d="M458 558L457 40" stroke-width="6" stroke="url(&quot;#SvgjsLinearGradient1138&quot;)" stroke-linecap="round" class="Up"></path><path d="M439 531L438 -243" stroke-width="8" stroke="url(&quot;#SvgjsLinearGradient1139&quot;)" stroke-linecap="round" class="Down"></path><path d="M669 23L668 576" stroke-width="8" stroke="url(&quot;#SvgjsLinearGradient1142&quot;)" stroke-linecap="round" class="Down"></path><path d="M1667 1034L1666 1336" stroke-width="10" stroke="url(&quot;#SvgjsLinearGradient1141&quot;)" stroke-linecap="round" class="Down"></path><path d="M1210 835L1209 1506" stroke-width="10" stroke="url(&quot;#SvgjsLinearGradient1137&quot;)" stroke-linecap="round" class="Up"></path><path d="M1908 709L1907 1129" stroke-width="8" stroke="url(&quot;#SvgjsLinearGradient1139&quot;)" stroke-linecap="round" class="Down"></path><path d="M271 161L270 624" stroke-width="8" stroke="url(&quot;#SvgjsLinearGradient1142&quot;)" stroke-linecap="round" class="Down"></path><path d="M1826 1041L1825 1465" stroke-width="8" stroke="url(&quot;#SvgjsLinearGradient1138&quot;)" stroke-linecap="round" class="Up"></path><path d="M766 40L765 -683" stroke-width="10" stroke="url(&quot;#SvgjsLinearGradient1141&quot;)" stroke-linecap="round" class="Down"></path><path d="M1341 319L1340 -452" stroke-width="6" stroke="url(&quot;#SvgjsLinearGradient1137&quot;)" stroke-linecap="round" class="Up"></path><path d="M1888 664L1887 1174" stroke-width="10" stroke="url(&quot;#SvgjsLinearGradient1138&quot;)" stroke-linecap="round" class="Up"></path><path d="M154 832L153 150" stroke-width="8" stroke="url(&quot;#SvgjsLinearGradient1140&quot;)" stroke-linecap="round" class="Up"></path><path d="M1206 866L1205 1562" stroke-width="10" stroke="url(&quot;#SvgjsLinearGradient1139&quot;)" stroke-linecap="round" class="Down"></path><path d="M786 763L785 1285" stroke-width="10" stroke="url(&quot;#SvgjsLinearGradient1142&quot;)" stroke-linecap="round" class="Down"></path><path d="M392 356L391 -75" stroke-width="10" stroke="url(&quot;#SvgjsLinearGradient1137&quot;)" stroke-linecap="round" class="Up"></path><path d="M914 194L913 516" stroke-width="6" stroke="url(&quot;#SvgjsLinearGradient1139&quot;)" stroke-linecap="round" class="Down"></path><path d="M75 971L74 551" stroke-width="6" stroke="url(&quot;#SvgjsLinearGradient1142&quot;)" stroke-linecap="round" class="Down"></path><path d="M1259 576L1258 254" stroke-width="8" stroke="url(&quot;#SvgjsLinearGradient1141&quot;)" stroke-linecap="round" class="Down"></path><path d="M941 304L940 754" stroke-width="8" stroke="url(&quot;#SvgjsLinearGradient1138&quot;)" stroke-linecap="round" class="Up"></path><path d="M8 760L7 1391" stroke-width="8" stroke="url(&quot;#SvgjsLinearGradient1137&quot;)" stroke-linecap="round" class="Up"></path><path d="M1505 656L1504 338" stroke-width="10" stroke="url(&quot;#SvgjsLinearGradient1142&quot;)" stroke-linecap="round" class="Down"></path><path d="M1019 864L1018 167" stroke-width="8" stroke="url(&quot;#SvgjsLinearGradient1137&quot;)" stroke-linecap="round" class="Up"></path><path d="M476 89L475 686" stroke-width="6" stroke="url(&quot;#SvgjsLinearGradient1139&quot;)" stroke-linecap="round" class="Down"></path></g><defs><mask id="SvgjsMask1136"><rect width="1920" height="1080" fill="#ffffff"></rect></mask><linearGradient x1="0%" y1="100%" x2="0%" y2="0%" id="SvgjsLinearGradient1137"><stop stop-color="rgba(88, 72, 115, 0)" offset="0"></stop><stop stop-color="rgba(88, 72, 115, 1)" offset="1"></stop></linearGradient><linearGradient x1="0%" y1="100%" x2="0%" y2="0%" id="SvgjsLinearGradient1138"><stop stop-color="rgba(73, 129, 171, 0)" offset="0"></stop><stop stop-color="rgba(73, 129, 171, 1)" offset="1"></stop></linearGradient><linearGradient x1="0%" y1="0%" x2="0%" y2="100%" id="SvgjsLinearGradient1139"><stop stop-color="rgba(28, 83, 142, 0)" offset="0"></stop><stop stop-color="#1c538e" offset="1"></stop></linearGradient><linearGradient x1="0%" y1="100%" x2="0%" y2="0%" id="SvgjsLinearGradient1140"><stop stop-color="rgba(28, 83, 142, 0)" offset="0"></stop><stop stop-color="#1c538e" offset="1"></stop></linearGradient><linearGradient x1="0%" y1="0%" x2="0%" y2="100%" id="SvgjsLinearGradient1141"><stop stop-color="rgba(88, 72, 115, 0)" offset="0"></stop><stop stop-color="rgba(88, 72, 115, 1)" offset="1"></stop></linearGradient><linearGradient x1="0%" y1="0%" x2="0%" y2="100%" id="SvgjsLinearGradient1142"><stop stop-color="rgba(73, 129, 171, 0)" offset="0"></stop><stop stop-color="rgba(73, 129, 171, 1)" offset="1"></stop></linearGradient></defs></svg>