<svg xmlns="http://www.w3.org/2000/svg" version="1.1" xmlns:xlink="http://www.w3.org/1999/xlink" xmlns:svgjs="http://svgjs.dev/svgjs" width="1920" height="1080" preserveAspectRatio="none" viewBox="0 0 1920 1080"><g mask="url(&quot;#SvgjsMask1025&quot;)" fill="none"><rect width="1920" height="1080" x="0" y="0" fill="#0e2a47"></rect><path d="M 0,260 C 76.8,221.8 230.4,72.8 384,69 C 537.6,65.2 614.4,251.6 768,241 C 921.6,230.4 998.4,15.6 1152,16 C 1305.6,16.4 1382.4,237 1536,243 C 1689.6,249 1843.2,85.4 1920,46L1920 1080L0 1080z" fill="rgba(24, 57, 105, 1)"></path><path d="M 0,577 C 76.8,557.4 230.4,481.8 384,479 C 537.6,476.2 614.4,560.2 768,563 C 921.6,565.8 998.4,477.4 1152,493 C 1305.6,508.6 1382.4,635.6 1536,641 C 1689.6,646.4 1843.2,544.2 1920,520L1920 1080L0 1080z" fill="#184a7e"></path><path d="M 0,845 C 55,860.6 165,928.2 275,923 C 385,917.8 440,794.6 550,819 C 660,843.4 715,1042 825,1045 C 935,1048 990,851.4 1100,834 C 1210,816.6 1265,945.6 1375,958 C 1485,970.4 1541,906 1650,896 C 1759,886 1866,905.6 1920,908L1920 1080L0 1080z" fill="#2264ab"></path></g><defs><mask id="SvgjsMask1025"><rect width="1920" height="1080" fill="#ffffff"></rect></mask></defs></svg>